<?xml version="1.0" encoding="UTF-8"?>
<svg width="14px" height="16px" viewBox="0 0 14 16" version="1.1" xmlns="http://www.w3.org/2000/svg" xmlns:xlink="http://www.w3.org/1999/xlink">
    <!-- Generator: Sketch 56 (81588) - https://sketch.com -->
    <title>Group 6@3x</title>
    <desc>Created with Sketch.</desc>
    <defs>
        <linearGradient x1="51.995387%" y1="79.0104113%" x2="51.995387%" y2="26.1588472%" id="linearGradient-1">
            <stop stop-color="#ECB218" stop-opacity="0" offset="0%"></stop>
            <stop stop-color="#ECB218" offset="100%"></stop>
        </linearGradient>
        <linearGradient x1="74.8079877%" y1="57.055579%" x2="110.038402%" y2="90.2838714%" id="linearGradient-2">
            <stop stop-color="#ECB218" stop-opacity="0" offset="0%"></stop>
            <stop stop-color="#ECB218" offset="100%"></stop>
        </linearGradient>
        <linearGradient x1="58.6313146%" y1="48.9318492%" x2="23.3739973%" y2="40.8224428%" id="linearGradient-3">
            <stop stop-color="#ECB218" stop-opacity="0" offset="0%"></stop>
            <stop stop-color="#ECB218" offset="100%"></stop>
        </linearGradient>
    </defs>
    <g id="Page-1" stroke="none" stroke-width="1" fill="none" fill-rule="evenodd">
        <g id="a-login" transform="translate(-320.000000, -517.000000)">
            <g id="Group-6" transform="translate(319.000000, 517.000000)">
                <rect id="Rectangle" x="0" y="0" width="16" height="16"></rect>
                <g id="logo-pharbers" transform="translate(1.000000, 0.000000)" fill-rule="nonzero">
                    <path d="M11.5675,8.35340659 L11.5675,2.96967033 C11.5668382,2.94620319 11.5742556,2.9232253 11.5885,2.90461538 C11.6314718,2.84080641 11.7160434,2.82090353 11.78275,2.8589011 L13.58,3.9032967 C13.7448809,3.9993517 13.8467673,4.17598374 13.847768,4.36747253 L13.847768,11.6852747 C13.8493297,11.8774535 13.7467506,12.0552863 13.58,12.1494505 L11.78275,13.1938462 C11.7149745,13.2327636 11.6286677,13.2101088 11.5885,13.1428571 C11.5767979,13.1206611 11.5707835,13.0958859 11.571,13.0707692 L11.571,10.6514286 L7.021,8.01406593 L2.4605,10.6514286 L2.4605,13.0795604 C2.46116179,13.1030276 2.45374443,13.1260055 2.4395,13.1446154 C2.39652824,13.2084244 2.31195656,13.2283272 2.24525,13.1903297 L0.44275,12.1564835 C0.277869133,12.0604285 0.175982683,11.8837965 0.175,11.6923077 L0.175,4.36571429 C0.170183046,4.17040542 0.27320741,3.98841802 0.44275,3.89274725 L6.72525,0.242637363 C6.90131804,0.140922765 7.11793196,0.140922765 7.294,0.242637363 L9.1455,1.31692308 C9.23427147,1.36757419 9.2890827,1.46226663 9.289,1.56483516 L9.289,5.96043956 C9.28966179,5.9839067 9.28224443,6.00688459 9.268,6.02549451 C9.22502824,6.08930348 9.14045656,6.10920636 9.07375,6.07120879 L7.08225,4.91604396 C7.03813551,4.89087412 7.01077247,4.84393671 7.0105,4.79296703 L7.0105,2.38593407 L2.50775,5.00043956 C2.47401905,5.01914874 2.45319639,5.05491643 2.4535,5.09362637 L2.4535,8.35516484 L6.727,5.87604396 C6.90306804,5.77432936 7.11968196,5.77432936 7.29575,5.87604396 L11.5675,8.35340659 Z" id="Path" fill="#F5C924"></path>
                    <path d="M9.29775606,10.1978022 L9.29775606,14.5828571 C9.29822565,14.6340299 9.27065676,14.6813205 9.226,14.7059341 L7.2135,15.8646154 C7.14429355,15.903096 7.05716395,15.8788662 7.0175,15.8101099 C7.00579794,15.7879139 6.99978352,15.7631386 6.99999436,15.738022 L6.99999436,8.88087912 L9.29775606,10.1978022 Z" id="Path-2" fill="#F5C924"></path>
                    <path d="M7.0105,2.38593407 L8.82,1.33098901 C8.91696823,1.27432038 9.03669489,1.27407458 9.13389282,1.33034459 C9.23109074,1.38661459 9.29092004,1.49080926 9.29075036,1.60351648 L9.29075036,5.62813187 L7.01575,4.72615385 L7.0105,2.38593407 Z" id="Path-3" fill="url(#linearGradient-1)"></path>
                    <polygon id="Path-4" fill="url(#linearGradient-2)" points="11.578 8.35516484 11.578 10.6514286 7.021 8.00703297 7.91175 6.22593407"></polygon>
                    <path d="M7.0105,8.00703297 L10.11675,9.80923077 L11.0075,8.91076923 C11.1385103,8.77846665 11.201174,8.59267777 11.1772075,8.40761045 C11.1532409,8.22254312 11.0453448,8.05905055 10.885,7.96483516 L9.3835,7.08571429 C9.1386155,6.94196941 8.8356345,6.94196941 8.59075,7.08571429" id="Path-5" fill="url(#linearGradient-3)"></path>
                </g>
            </g>
        </g>
    </g>
</svg>